<?xml version="1.0" encoding="UTF-8" standalone="no"?>
<!-- Created with Inkscape (http://www.inkscape.org/) -->

<svg
   width="180mm"
   height="238mm"
   viewBox="0 0 180 238"
   version="1.1"
   id="svg1"
   xml:space="preserve"
   inkscape:version="1.4 (e7c3feb100, 2024-10-09)"
   sodipodi:docname="newmap.svg"
   xmlns:inkscape="http://www.inkscape.org/namespaces/inkscape"
   xmlns:sodipodi="http://sodipodi.sourceforge.net/DTD/sodipodi-0.dtd"
   xmlns:xlink="http://www.w3.org/1999/xlink"
   xmlns="http://www.w3.org/2000/svg"
   xmlns:svg="http://www.w3.org/2000/svg"><sodipodi:namedview
     id="namedview1"
     pagecolor="#ffffff"
     bordercolor="#666666"
     borderopacity="1.0"
     inkscape:showpageshadow="2"
     inkscape:pageopacity="0.0"
     inkscape:pagecheckerboard="0"
     inkscape:deskcolor="#d1d1d1"
     inkscape:document-units="mm"
     inkscape:zoom="1.4142136"
     inkscape:cx="415.77878"
     inkscape:cy="393.85847"
     inkscape:window-width="2560"
     inkscape:window-height="1371"
     inkscape:window-x="0"
     inkscape:window-y="0"
     inkscape:window-maximized="1"
     inkscape:current-layer="layer1"
     showgrid="false"><inkscape:grid
       id="grid2"
       units="mm"
       originx="0"
       originy="0"
       spacingx="0.26458334"
       spacingy="0.26458332"
       empcolor="#3f3fff"
       empopacity="0.25098039"
       color="#3f3fff"
       opacity="0.1254902"
       empspacing="5"
       enabled="true"
       visible="false" /></sodipodi:namedview><defs
     id="defs1"><marker
       style="overflow:visible"
       id="Triangle"
       refX="0"
       refY="0"
       orient="auto-start-reverse"
       inkscape:stockid="Triangle arrow"
       markerWidth="1"
       markerHeight="1"
       viewBox="0 0 1 1"
       inkscape:isstock="true"
       inkscape:collect="always"
       preserveAspectRatio="xMidYMid"><path
         transform="scale(0.5)"
         style="fill:context-stroke;fill-rule:evenodd;stroke:context-stroke;stroke-width:1pt"
         d="M 5.77,0 -2.88,5 V -5 Z"
         id="path135" /></marker></defs><g
     inkscape:groupmode="layer"
     id="layer4"
     inkscape:label="background"
     style="display:inline"><rect
       style="fill:#efefef;fill-opacity:1;stroke:none;stroke-width:1.219;stroke-linecap:round;stroke-dasharray:none;stroke-dashoffset:0;stroke-opacity:1"
       id="rect27"
       width="186.48801"
       height="246.79158"
       x="-2.6565294"
       y="-4.5161004" /></g><g
     inkscape:label="map"
     inkscape:groupmode="layer"
     id="layer1"
     style="display:inline"
     transform="translate(-5.6223089,-28.889759)"><path
       style="display:inline;fill:#beea96;fill-opacity:1;stroke:none;stroke-width:0.264583px;stroke-linecap:butt;stroke-linejoin:miter;stroke-opacity:1"
       d="m 104.03303,214.18268 -2.45729,-0.99619 c -0.8063,2.76414 -50.288907,-57.2577 -45.692264,-89.59147 -0.941083,-11.16531 30.692501,-46.832781 71.527004,-58.842113 l 10.95819,-36.394454 55.78712,0.06641 0.13283,22.97898 -14.74374,-6.043605 -5.64513,10.559704 -8.036,13.74754 -3.85197,-1.062611 -58.44365,137.541809 3.38708,2.52371 z"
       id="path3"
       sodipodi:nodetypes="cccccccccccccc"
       inkscape:label="green" /><path
       style="display:inline;fill:#beea96;fill-opacity:1;stroke:none;stroke-width:0.264583px;stroke-linecap:butt;stroke-linejoin:miter;stroke-opacity:1"
       d="m 104.20378,267.8992 c -0.79276,-6.19328 -0.93116,-12.09923 -0.56354,-20.38119 1.15323,-3.76547 3.07331,-7.81826 4.97789,-10.33148 l 18.50274,3.85083 1.97237,2.34806 0.65746,18.50274 -4.03867,-0.18785 -1.40884,6.10496 z"
       id="path12"
       sodipodi:nodetypes="ccccccccc"
       inkscape:label="green" /><path
       style="display:inline;fill:none;stroke:#8a8a8a;stroke-width:0.9;stroke-linecap:butt;stroke-linejoin:miter;stroke-dasharray:none;stroke-opacity:1"
       d="m 51.843673,44.011281 4.051204,2.12523"
       id="path8-97"
       sodipodi:nodetypes="cc"
       inkscape:label="roads - foot" /><path
       id="path8"
       style="display:inline;fill:#e8e8e8;fill-opacity:1;stroke:#b5b5b5;stroke-width:0.3;stroke-dasharray:none;stroke-opacity:1"
       d="M 103.52744,28.247938 96.709256,52.965809 C 92.849715,51.451419 89.29502,49.931393 85.893378,48.512334 L 91.498204,28.804493 89.577908,28.259823 84.03561,47.757341 C 78.820177,45.62699 73.922028,43.839565 68.978648,43.111113 l -0.02532,-0.0036 -0.02584,-0.0021 c -2.324867,-0.217105 -4.325705,-0.307966 -6.050277,-0.253732 h -5.17e-4 c -1.724572,0.05423 -3.173416,0.254162 -4.394047,0.6134 -2.441262,0.718476 -3.999877,2.282957 -4.453475,4.372859 -0.453598,2.089902 0.0077,4.5604 0.918291,7.566464 0.725395,2.394804 1.828059,5.25896 3.051493,8.401554 0.02011,0.05166 0.841885,1.351092 -0.796851,1.847432 C 53.620606,66.738168 0.16682794,78.8464 0.16682794,78.8464 l 0.34468181,1.292427 c 0,0 37.32389525,-8.358312 59.51212925,-13.418302 0.966597,-0.261931 0.7549,-0.818197 0.706934,-1.333769 -1.617552,-4.155746 -3.001053,-7.681475 -3.873149,-10.560596 -0.872096,-2.879121 -1.193892,-5.10418 -0.876949,-6.564457 0.316942,-1.460278 1.081778,-2.29892 3.06648,-2.883028 1.979021,-0.582436 5.148772,-0.707918 9.661942,-0.288871 13.636645,2.017738 27.684882,12.829595 52.262443,16.752982 -0.15591,0.06307 -0.2444,0.08934 -0.40876,0.157097 -2.14267,0.88328 -4.99264,2.160588 -8.32817,3.781164 -6.67108,3.241151 -15.282151,7.858305 -23.992338,13.443624 -0.575818,0.369237 -1.14962,0.775518 -1.725993,1.152901 C 78.575853,71.000351 74.505698,60.446464 70.0468,49.582036 c -1.066662,-0.546075 -1.587603,-0.126563 -1.845882,0.757577 4.4211,10.772329 8.543525,21.515621 16.645496,31.153653 C 72.893616,89.485949 61.162616,99.129884 54.528884,109.64039 41.510675,103.63642 33.999305,97.115224 11.011644,97.259746 7.6732901,97.280736 4.0089007,97.441454 -0.04711249,97.765658 l 0.15864665,1.987993 C 31.640158,97.233513 38.485776,104.40129 53.520677,111.36845 c -1.869991,3.26772 -3.261633,6.60467 -3.969783,9.99473 -2.687782,12.86699 3.987128,31.99114 14.322123,50.31063 10.334995,18.31949 24.396296,35.75951 37.084043,44.85928 1.06471,0.76362 2.1728,0.90683 3.04477,0.98236 0.7091,0.0614 1.25966,0.10749 1.75855,0.29508 -1.75941,4.24796 -3.45231,8.37143 -5.30355,12.78888 l 1.8402,0.77153 c 10.16569,-24.25744 18.80394,-45.71684 27.42313,-66.85793 l 30.75781,11.01069 c -5.44001,11.28616 -10.8755,22.60619 -16.30029,33.91008 l 1.79885,0.86299 c 5.14298,-11.74114 11.62939,-23.13122 16.74213,-34.82784 0.3961,-0.8592 0.92648,-1.81881 1.76372,-2.64842 1.67448,-1.65921 4.61057,-2.98945 10.92388,-1.56476 l 0.01,0.004 18.73839,3.85351 0.40256,-1.95492 -18.711,-3.84782 c -1.68087,-0.37931 -3.18442,-0.57288 -4.52738,-0.61547 h -5.1e-4 c -1.73535,-0.055 -3.18851,0.15246 -4.42712,0.52245 -0.13142,-0.10557 -0.2489,-0.25229 -0.3483,-0.56328 -0.12154,-0.38022 -0.1874,-0.9638 -0.154,-1.70532 0.0668,-1.48304 0.51807,-3.58134 1.28881,-6.0973 1.54149,-5.03191 4.33829,-11.75546 7.66052,-19.21485 6.64446,-14.91878 15.38749,-32.79993 20.48402,-46.586302 l -1.87069,-0.69143 c -5.03348,13.615822 -13.76806,31.493462 -20.43596,46.464862 -3.33394,7.4857 -6.15257,14.24096 -7.74578,19.44171 -0.7966,2.60038 -1.29249,4.80501 -1.37304,6.5934 -0.0403,0.8942 0.0188,1.6915 0.24598,2.40243 0.0834,0.26106 0.20444,0.50716 0.34364,0.74104 -0.74339,0.40779 -1.38224,0.88061 -1.90789,1.40147 -0.76219,0.75524 -1.30023,1.56864 -1.71101,2.32027 l -30.89217,-11.06031 c 12.99269,-31.8429 26.04056,-63.115268 44.27379,-102.215464 6.16195,2.342547 12.90024,3.916595 20.04167,4.953186 l 0.14314,-1.943034 c -6.83815,-0.704137 -13.31156,-2.319968 -19.34766,-4.798156 1.89393,-4.051113 3.82761,-8.16217 5.83892,-12.391492 l -1.80247,-0.857829 C 147.119,113.75875 130.55884,157.85142 106.52279,215.97175 c -0.85829,-0.3372 -1.67917,-0.38435 -2.34869,-0.44235 -0.81083,-0.0702 -1.40356,-0.15263 -2.05466,-0.6196 C 89.849002,206.10957 75.828918,188.80841 65.609345,170.69351 55.389772,152.57861 49.037663,133.57503 51.503746,121.76936 54.605319,106.92147 72.06509,91.969051 89.320559,80.904155 97.948294,75.371707 106.49917,70.784749 113.10722,67.574219 c 3.30403,-1.605265 6.12224,-2.865751 8.215,-3.728454 1.04637,-0.431351 1.91308,-0.764293 2.55644,-0.986503 0.64335,-0.22221 1.15551,-0.324023 1.09812,-0.320394 l -0.009,-0.13901 c 0.99987,0.122366 1.97819,0.26007 3.01221,0.358118 l 0.18759,-1.986442 C 116.27829,59.644167 106.7809,56.790703 98.582306,53.682044 l 6.866764,-24.902873 z"
       inkscape:label="roads - center" /><path
       id="path8-93"
       style="display:inline;fill:#e8e8e8;fill-opacity:1;stroke:#b5b5b5;stroke-width:0.3;stroke-dasharray:none;stroke-opacity:1"
       d="M 17.820101 144.18241 C 11.091613 149.97828 0.024460927 155.9703 -7.7597331 159.66622 L -7.2750081 161.25011 C -2.9106819 159.36143 1.4660528 157.05882 5.7123128 154.52545 C 3.1117923 175.04193 2.9296646 195.92106 2.7435018 216.79969 L 4.5847331 216.60642 C 4.6245511 204.32172 4.6539044 191.91267 5.2162191 179.61436 L 5.2446411 179.7482 C 13.849071 175.82709 23.609115 165.89682 32.797998 158.93655 L 31.505054 157.85496 C 22.777385 164.48332 13.580528 173.81145 5.3025187 177.85426 C 5.7130808 169.64802 6.3755911 161.49765 7.4512248 153.47125 C 11.53754 150.95165 15.481792 148.23699 19.146635 145.48414 L 17.820101 144.18241 z "
       transform="translate(5.6223089,28.889759)"
       inkscape:label="roads - sw" /><path
       style="display:inline;fill:#e8e8e8;fill-opacity:1;stroke:#b5b5b5;stroke-width:0.3;stroke-dasharray:none;stroke-opacity:1"
       d="m 162.3319,206.6131 -1.9815,0.33542 7.8155,24.27672 c 1.0074,0.74245 1.60836,0.26561 2.12182,-0.47378 z"
       id="path8-92"
       sodipodi:nodetypes="ccccc"
       transform="translate(5.6223089,28.889759)"
       inkscape:label="roads - se" /><path
       style="display:inline;fill:#e8e8e8;fill-opacity:1;stroke:#b5b5b5;stroke-width:0.3;stroke-dasharray:none;stroke-opacity:1"
       d="m 49.328125,28.513672 -1.898438,0.61914 3.714844,11.40625 c 0.411519,1.339128 0.316643,2.238362 -0.146484,2.947266 -0.462274,0.707597 -1.429792,1.347417 -3.117188,1.767578 l -47.90234338,9.021485 0.36914063,1.960937 47.97851575,-9.037109 0.02734,-0.0078 c 1.978176,-0.490841 3.469776,-1.320344 4.314453,-2.613281 0.844676,-1.292937 0.904284,-2.928074 0.382812,-4.625 l -0.002,-0.0078 z"
       id="path11"
       inkscape:label="roads - nw" /><path
       style="fill:#f3c350;stroke:#e0af32;stroke-opacity:1"
       d="m 0.52734375,144.20508 -2.84375005,2.81445 34.4101563,34.78711 0.03906,0.0352 c 8.778121,8.00952 18.054801,15.35012 27.240235,22.71679 l 0.03711,0.0312 31.404297,22.75391 6.503906,4.78125 10.246092,5.36719 16.15821,3.30664 c 3.18946,1.04791 4.27082,2.26654 4.51171,3.8125 l 0.83399,11.93945 c 0.1072,1.94436 -0.15609,3.15153 -0.32617,3.44336 -0.085,0.14592 -0.0635,0.11601 -0.15039,0.15039 -0.0869,0.0344 -0.35575,0.0952 -0.87305,0.0371 l -0.0977,-0.01 -21.83007,-0.29101 -0.50586,0.32226 c -2.60171,1.66563 -4.00239,4.35487 -5.09375,7.03711 l 3.70507,1.50586 c 0.89914,-2.20982 1.94217,-3.85834 3.23243,-4.84765 l 20.34179,0.27148 -0.19726,-0.0117 c 0.95381,0.10708 1.89678,0.0588 2.79101,-0.29492 0.89423,-0.35375 1.66643,-1.05189 2.13477,-1.85547 0.93668,-1.60715 0.98725,-3.42918 0.86328,-5.67773 v -0.0137 l -0.85352,-12.21289 -0.0117,-0.0801 c -0.15064,-0.99051 -0.56151,-1.8749 -1.0918,-2.70313 0.86072,-0.53473 1.55709,-1.06371 2.02344,-1.43554 0.81005,-0.64588 1.02784,-0.88235 2.45507,-0.93555 19.50221,-0.727 42.62727,-4.39918 60.20704,-11.54688 l -1.50586,-3.70507 c -16.88204,6.864 -39.73789,10.54334 -58.85157,11.25585 -2.22368,0.0829 -3.79819,1.0049 -4.79882,1.80274 -0.86277,0.68791 -1.49458,1.19699 -2.60157,1.66211 -0.92903,-0.56354 -1.94785,-1.06472 -3.11132,-1.44336 l -0.10743,-0.0352 -15.89453,-3.25195 -9.476562,-4.96484 -6.269531,-4.60938 -31.345703,-22.71289 C 52.656225,194.04459 43.475863,186.7732 34.859344,178.91374 Z"
       id="path1"
       inkscape:label="roads - main" /><path
       style="fill:none;stroke:#000000;stroke-width:0.465;stroke-linecap:butt;stroke-linejoin:miter;stroke-dasharray:1.86, 0.465;stroke-dashoffset:0;stroke-opacity:1"
       d="M -0.10287771,263.2578 C 26.389912,251.82491 50.065,244.9708 73.797771,238.02295 L 194.08938,202.5561"
       id="path4"
       sodipodi:nodetypes="ccc"
       inkscape:label="rail" /><path
       style="fill:none;stroke:#000000;stroke-width:0.465;stroke-linecap:butt;stroke-linejoin:miter;stroke-dasharray:1.86, 0.465;stroke-dashoffset:0;stroke-opacity:1"
       d="M 0.02994896,266.58273 194.08938,204.68559"
       id="path5"
       inkscape:label="rail" /><path
       style="display:inline;fill:none;stroke:#005c25;stroke-width:0.6;stroke-linecap:butt;stroke-linejoin:miter;stroke-dasharray:1.2, 1.2;stroke-dashoffset:0;stroke-opacity:1"
       d="m 122.35462,135.99278 c -3.66641,-22.66491 -0.83659,-62.478465 -3.66297,-71.756787 m 47.53461,3.813442 c -0.44224,-1.042117 0.74063,-2.625938 -1.69955,-3.002076 l -28.08608,-6.884094 c -3.23236,-0.817157 -5.4112,-0.457036 -5.15353,2.46629"
       id="path13-2"
       sodipodi:nodetypes="cccccc"
       inkscape:label="footpath" /><path
       style="display:inline;fill:none;stroke:#005c25;stroke-width:0.6;stroke-linecap:butt;stroke-linejoin:miter;stroke-dasharray:1.2, 1.2;stroke-dashoffset:0;stroke-opacity:1"
       d="m 150.16918,66.22631 c -4.96423,4.567232 -12.51144,4.478948 -13.71264,-2.911595"
       id="path20"
       inkscape:label="footpath" /><path
       style="display:inline;fill:none;stroke:#005c25;stroke-width:0.6;stroke-linecap:butt;stroke-linejoin:miter;stroke-dasharray:1.2, 1.2;stroke-dashoffset:0;stroke-opacity:1"
       d="M 136.70096,141.19774 55.364122,111.23646"
       id="path13"
       inkscape:label="footpath" /><path
       style="display:inline;fill:none;stroke:#005c25;stroke-width:0.6;stroke-linecap:butt;stroke-linejoin:miter;stroke-dasharray:1.2, 1.2;stroke-dashoffset:0;stroke-opacity:1"
       d="M 180.54927,45.805586 191.82132,20.521522"
       id="path13-52"
       sodipodi:nodetypes="cc"
       inkscape:label="footpath" /><path
       style="display:inline;fill:none;stroke:#005c25;stroke-width:0.6;stroke-linecap:butt;stroke-linejoin:miter;stroke-dasharray:1.2, 1.2;stroke-dashoffset:0;stroke-opacity:1"
       d="m 144.71564,210.63058 -9.3922,23.95024"
       id="path13-5"
       inkscape:label="footpath"
       sodipodi:nodetypes="cc" /><path
       style="display:inline;fill:none;stroke:#005c25;stroke-width:0.6;stroke-linecap:butt;stroke-linejoin:miter;stroke-dasharray:1.2, 1.2;stroke-dashoffset:0;stroke-opacity:1"
       d="M 168.14945,70.215945 127.76277,61.762918"
       id="path13-4"
       inkscape:label="footpath"
       sodipodi:nodetypes="cc" /><text
       xml:space="preserve"
       style="font-size:4.58487337px;line-height:1.25;font-family:FreeSans;letter-spacing:0px;word-spacing:0px;stroke-width:0.264583;direction:ltr;-inkscape-font-specification:'FreeSans, Normal';font-weight:normal;font-style:normal;font-stretch:normal;font-variant:normal;font-variant-ligatures:normal;font-variant-caps:small-caps;font-variant-numeric:normal;font-variant-east-asian:normal"
       x="-96.117729"
       y="185.31172"
       id="text26"
       transform="rotate(-68.801496)"
       inkscape:label="label-hp"><tspan
         sodipodi:role="line"
         id="tspan25"
         style="font-size:4.58487337px;stroke-width:0.264583;direction:ltr;-inkscape-font-specification:'FreeSans, Normal';font-family:FreeSans;font-weight:normal;font-style:normal;font-stretch:normal;font-variant:normal;font-variant-ligatures:normal;font-variant-caps:small-caps;font-variant-numeric:normal;font-variant-east-asian:normal"
         x="-96.117729"
         y="185.31172">Highbury Place</tspan></text><text
       xml:space="preserve"
       style="font-size:4.58487337px;line-height:1.25;font-family:FreeSans;letter-spacing:0px;word-spacing:0px;direction:ltr;display:inline;stroke-width:0.264583;-inkscape-font-specification:'FreeSans, Normal';font-weight:normal;font-style:normal;font-stretch:normal;font-variant:normal;font-variant-ligatures:normal;font-variant-caps:small-caps;font-variant-numeric:normal;font-variant-east-asian:normal"
       x="169.78519"
       y="129.77216"
       id="text26-3"
       transform="rotate(36.127528)"
       inkscape:label="label - hr"><tspan
         sodipodi:role="line"
         id="tspan25-2"
         style="font-size:4.58487337px;direction:ltr;stroke-width:0.264583;-inkscape-font-specification:'FreeSans, Normal';font-family:FreeSans;font-weight:normal;font-style:normal;font-stretch:normal;font-variant:normal;font-variant-ligatures:normal;font-variant-caps:small-caps;font-variant-numeric:normal;font-variant-east-asian:normal"
         x="169.78519"
         y="129.77216">Holloway Road</tspan></text><path
       style="display:none;fill:none;stroke:#000000;stroke-width:0.264583px;stroke-linecap:butt;stroke-linejoin:miter;stroke-opacity:1"
       d="m 72.363454,45.823092 c 15.172911,4.613001 23.472247,10.04564 38.166146,13.824479"
       id="path28"
       sodipodi:nodetypes="cc"
       inkscape:label="label path - rr" /><text
       xml:space="preserve"
       style="font-style:normal;font-variant:normal;font-weight:normal;font-stretch:normal;font-size:4.58487px;line-height:1.25;font-family:FreeSans;-inkscape-font-specification:'FreeSans, Normal';font-variant-ligatures:normal;font-variant-caps:small-caps;font-variant-numeric:normal;font-variant-east-asian:normal;letter-spacing:0px;word-spacing:0px;direction:ltr;stroke-width:0.264583"
       id="text27"
       inkscape:label="label - rr"
       transform="translate(0,4.2333335)"><textPath
         xlink:href="#path28"
         id="textPath28"><tspan
           id="tspan27"
           style="font-style:normal;font-variant:normal;font-weight:normal;font-stretch:normal;font-size:4.58487px;font-family:FreeSans;-inkscape-font-specification:'FreeSans, Normal';font-variant-ligatures:normal;font-variant-caps:small-caps;font-variant-numeric:normal;font-variant-east-asian:normal;direction:ltr;stroke-width:0.264583">Ronalds Road</tspan></textPath></text><path
       style="display:none;fill:none;stroke:#000000;stroke-width:0.264583px;stroke-linecap:butt;stroke-linejoin:miter;stroke-opacity:1"
       d="m 47.971297,146.13291 c 4.102667,13.68138 18.555507,38.35586 25.136361,46.12743"
       id="path27"
       sodipodi:nodetypes="cc"
       inkscape:label="label path - hc" /><text
       xml:space="preserve"
       style="font-style:normal;font-variant:normal;font-weight:normal;font-stretch:normal;font-size:4.58487px;line-height:1.25;font-family:FreeSans;-inkscape-font-specification:'FreeSans, Normal';font-variant-ligatures:normal;font-variant-caps:small-caps;font-variant-numeric:normal;font-variant-east-asian:normal;letter-spacing:0px;word-spacing:0px;stroke-width:0.264583"
       id="text1"
       inkscape:label="label - hc"><textPath
         xlink:href="#path27"
         id="textPath1"
         style="font-style:normal;font-variant:normal;font-weight:normal;font-stretch:normal;font-size:4.58487px;font-family:FreeSans;-inkscape-font-specification:'FreeSans, Normal';font-variant-ligatures:normal;font-variant-caps:small-caps;font-variant-numeric:normal;font-variant-east-asian:normal">Highbury Crescent</textPath></text></g><g
     inkscape:groupmode="layer"
     id="layer5"
     inkscape:label="route"
     style="display:inline"><path
       style="display:inline;fill:none;stroke:#0a6100;stroke-width:1;stroke-linecap:butt;stroke-linejoin:miter;stroke-dasharray:none;stroke-opacity:1;marker-end:url(#Triangle)"
       d="m 93.211189,234.65196 7.172831,-5.59305"
       id="path18"
       sodipodi:nodetypes="cc"
       transform="translate(-5.6223088,-28.889759)"
       inkscape:label="arrow 1" /><path
       style="display:inline;fill:none;stroke:#0a6100;stroke-width:1;stroke-linecap:butt;stroke-linejoin:miter;stroke-dasharray:none;stroke-opacity:1;marker-end:url(#Triangle)"
       d="M 103.70917,225.54633 163.65672,74.137083"
       id="path14"
       sodipodi:nodetypes="cc"
       transform="translate(-5.6223088,-28.889759)"
       inkscape:label="arrow 2" /><path
       style="display:inline;fill:none;stroke:#0a6100;stroke-width:1;stroke-linecap:butt;stroke-linejoin:miter;stroke-dasharray:none;stroke-opacity:1;marker-end:url(#Triangle)"
       d="M 165.18738,68.428383 116.11571,57.944407"
       id="path17"
       sodipodi:nodetypes="cc"
       transform="translate(-5.6223088,-28.889759)"
       inkscape:label="arrow 3" /></g><g
     inkscape:groupmode="layer"
     id="layer2"
     inkscape:label="rail sign"
     style="display:inline"
     transform="translate(-0.33064196,-25.714757)"><rect
       style="display:inline;fill:#ffffff;fill-opacity:0.765664;stroke:#0a6100;stroke-width:1.219;stroke-linecap:round;stroke-dasharray:none;stroke-dashoffset:0;stroke-opacity:1"
       id="rect13-5"
       width="56.014286"
       height="16.361731"
       x="30.545361"
       y="231.86064" /><g
       id="g20"
       transform="translate(-0.90463438,21.164792)"
       style="display:inline"
       inkscape:label="og"><circle
         style="fill:none;fill-opacity:1;stroke:#ffd400;stroke-width:1.1;stroke-linecap:round;stroke-dasharray:none;stroke-dashoffset:0;stroke-opacity:1"
         id="path19"
         cx="50.701382"
         cy="221.54317"
         r="2.6565294" /><rect
         style="fill:#2a00a0;fill-opacity:1;stroke:none;stroke-width:1.1;stroke-linecap:round;stroke-dasharray:none;stroke-dashoffset:0;stroke-opacity:1"
         id="rect19"
         width="6.9401832"
         height="1.4610912"
         x="47.231289"
         y="220.81262" /></g><g
       id="g21"
       transform="translate(-0.90463438,21.066632)"
       style="display:inline"
       inkscape:label="ug"><circle
         style="display:inline;fill:none;fill-opacity:1;stroke:#ff0018;stroke-width:1.1;stroke-linecap:round;stroke-dasharray:none;stroke-dashoffset:0;stroke-opacity:1"
         id="path19-5"
         cx="68.469406"
         cy="221.64133"
         r="2.6565294" /><rect
         style="display:inline;fill:#2a00a0;fill-opacity:1;stroke:none;stroke-width:1.1;stroke-linecap:round;stroke-dasharray:none;stroke-dashoffset:0;stroke-opacity:1"
         id="rect19-0"
         width="6.9401832"
         height="1.4610912"
         x="64.999313"
         y="220.91078" /></g><path
       d="m 63.451998,241.20418 v 0.86878 h -2.54552 l -2.481607,1.24125 h 5.027127 v 0.86878 h -5.027127 l 3.288239,1.36532 h -2.234768 l -2.917981,-1.36532 h -2.54552 v -0.86878 h 2.54552 l 2.481607,-1.24125 h -5.027127 v -0.86878 l 5.027127,-3e-5 -3.28824,-1.36531 h 2.234769 l 2.917981,1.36531 2.54552,-2e-5 z"
       fill="#ef3c24"
       id="path1-0"
       style="display:inline;stroke-width:0.0220392"
       inkscape:label="br" /><text
       xml:space="preserve"
       style="font-size:4.08094px;line-height:1.25;font-family:sans-serif;letter-spacing:0px;word-spacing:0px;direction:ltr;display:inline;fill:#0004a1;fill-opacity:1;stroke:none;stroke-width:0.102;stroke-dasharray:none;stroke-opacity:1"
       x="38.249878"
       y="237.46817"
       id="text21"
       inkscape:label="h&amp;i"><tspan
         sodipodi:role="line"
         id="tspan21"
         style="direction:ltr;fill:#0004a1;fill-opacity:1;stroke:none;stroke-width:0.102;stroke-dasharray:none;stroke-opacity:1"
         x="38.249878"
         y="237.46817">Highbury &amp; Islington</tspan></text></g><g
     inkscape:groupmode="layer"
     id="layer3"
     inkscape:label="klub"
     transform="translate(-5.6223089,-28.889759)"><text
       xml:space="preserve"
       style="font-style:normal;font-variant:normal;font-weight:normal;font-stretch:normal;font-size:5.86535px;line-height:1.25;font-family:FreeSans;-inkscape-font-specification:'FreeSans, Normal';font-variant-ligatures:normal;font-variant-caps:small-caps;font-variant-numeric:normal;font-variant-east-asian:normal;letter-spacing:0px;word-spacing:0px;direction:ltr;fill:#0a6100;fill-opacity:1;stroke-width:0.146634"
       x="83.127182"
       y="105.99914"
       id="text22"><tspan
         sodipodi:role="line"
         style="font-style:normal;font-variant:normal;font-weight:normal;font-stretch:normal;font-size:5.86535px;font-family:FreeSans;-inkscape-font-specification:'FreeSans, Normal';font-variant-ligatures:normal;font-variant-caps:small-caps;font-variant-numeric:normal;font-variant-east-asian:normal;direction:ltr;fill:#0a6100;fill-opacity:1;stroke-width:0.146634"
         x="83.127182"
         y="105.99914"
         id="tspan23">Highbury</tspan><tspan
         sodipodi:role="line"
         style="font-style:normal;font-variant:normal;font-weight:normal;font-stretch:normal;font-size:5.86535px;font-family:FreeSans;-inkscape-font-specification:'FreeSans, Normal';font-variant-ligatures:normal;font-variant-caps:small-caps;font-variant-numeric:normal;font-variant-east-asian:normal;direction:ltr;fill:#0a6100;fill-opacity:1;stroke-width:0.146634"
         x="83.127182"
         y="113.33083"
         id="tspan1">     Fields</tspan></text><text
       xml:space="preserve"
       style="font-style:normal;font-variant:normal;font-weight:normal;font-stretch:normal;font-size:7.61314px;line-height:1.25;font-family:FreeSans;-inkscape-font-specification:'FreeSans, Normal';font-variant-ligatures:normal;font-variant-caps:small-caps;font-variant-numeric:normal;font-variant-east-asian:normal;letter-spacing:0px;word-spacing:0px;direction:ltr;fill:#0a6100;fill-opacity:1;stroke-width:0.262357;stroke-dasharray:none"
       x="103.56085"
       y="47.00959"
       id="text24"><tspan
         sodipodi:role="line"
         id="tspan24"
         style="font-style:normal;font-variant:normal;font-weight:normal;font-stretch:normal;font-size:7.61313px;font-family:FreeSans;-inkscape-font-specification:'FreeSans, Normal';font-variant-ligatures:normal;font-variant-caps:small-caps;font-variant-numeric:normal;font-variant-east-asian:normal;direction:ltr;fill:#0a6100;fill-opacity:1;stroke-width:0.262357;stroke-dasharray:none"
         x="103.56085"
         y="47.00959">Kunvenejo</tspan></text><text
       xml:space="preserve"
       style="font-style:normal;font-variant:normal;font-weight:normal;font-stretch:normal;font-size:4.58487px;line-height:1.25;font-family:FreeSans;-inkscape-font-specification:'FreeSans, Normal';font-variant-ligatures:normal;font-variant-caps:small-caps;font-variant-numeric:normal;font-variant-east-asian:normal;letter-spacing:0px;word-spacing:0px;direction:ltr;fill:#0a6100;fill-opacity:1;stroke-width:0.106571"
       x="115.36089"
       y="53.567505"
       id="text25"><tspan
         sodipodi:role="line"
         style="font-style:normal;font-variant:normal;font-weight:normal;font-stretch:normal;font-size:4.58487px;font-family:FreeSans;-inkscape-font-specification:'FreeSans, Normal';font-variant-ligatures:normal;font-variant-caps:small-caps;font-variant-numeric:normal;font-variant-east-asian:normal;direction:ltr;fill:#0a6100;fill-opacity:1;stroke-width:0.106571"
         x="115.36089"
         y="53.567505"
         id="tspan26">(89 Ronalds Road)</tspan></text><rect
       style="display:inline;fill:#0a6100;fill-opacity:1;stroke:none;stroke-width:0.5;stroke-linecap:round;stroke-dasharray:none;stroke-dashoffset:0;stroke-opacity:1"
       id="rect13"
       width="8.3016548"
       height="4.7153397"
       x="104.09309"
       y="49.947029" /></g></svg>
