<?xml version="1.0" encoding="UTF-8" standalone="no"?>
<!-- Created with Inkscape (http://www.inkscape.org/) -->

<svg
   width="190mm"
   height="140mm"
   viewBox="0 0 190 140"
   version="1.1"
   id="svg35145"
   xml:space="preserve"
   inkscape:version="1.4.2 (ebf0e940d0, 2025-05-08)"
   sodipodi:docname="lekemblemomg.svg"
   xmlns:inkscape="http://www.inkscape.org/namespaces/inkscape"
   xmlns:sodipodi="http://sodipodi.sourceforge.net/DTD/sodipodi-0.dtd"
   xmlns:xlink="http://www.w3.org/1999/xlink"
   xmlns="http://www.w3.org/2000/svg"
   xmlns:svg="http://www.w3.org/2000/svg"><sodipodi:namedview
     id="namedview35147"
     pagecolor="#ffffff"
     bordercolor="#666666"
     borderopacity="1.0"
     inkscape:showpageshadow="2"
     inkscape:pageopacity="0.0"
     inkscape:pagecheckerboard="0"
     inkscape:deskcolor="#d1d1d1"
     inkscape:document-units="mm"
     showgrid="false"
     inkscape:zoom="1"
     inkscape:cx="326"
     inkscape:cy="296.5"
     inkscape:window-width="1920"
     inkscape:window-height="1131"
     inkscape:window-x="0"
     inkscape:window-y="0"
     inkscape:window-maximized="1"
     inkscape:current-layer="svg35145"
     showguides="true" /><defs
     id="defs35142" /><g
     inkscape:label="Layer 1"
     inkscape:groupmode="layer"
     id="layer1"
     transform="translate(-79.293107,-34.542881)"
     style="display:inline"><path
       d="m 172.7711,164.18597 c 0.33164,-1.5479 0.70894,-4.53614 1.44974,-6.1938 -0.7027,-0.0176 -1.73636,-0.006 -2.36388,0.004 -0.0725,-0.2763 0.28334,-0.68537 0.43912,-0.88147 0.36355,-0.1384 5.84535,-0.17361 5.92737,-0.0409 -0.19233,0.17847 -0.0832,0.62265 -0.2987,0.73194 -1.11912,0.11318 -1.86425,0.0983 -2.72077,0.21226 -0.49268,1.68088 -1.19573,5.30006 -1.28046,6.18125 -0.27786,0.0603 -0.72261,0.0188 -1.15259,-0.0133 z m -8.8648,-0.6473 c -0.62538,-1.50601 -1.39565,-3.37811 -2.02981,-4.91005 -0.67202,1.4343 -1.38195,3.21242 -1.50138,4.68693 -0.33685,-0.0266 -0.77239,-0.008 -1.11659,-0.17913 0.57272,-2.87792 2.12433,-4.42516 1.58915,-6.8586 0.10762,-0.0665 1.12885,-0.0607 1.34472,0.008 0.54459,1.60129 1.80952,4.62108 2.21267,5.48918 0.51876,-1.38969 0.96089,-3.47079 1.25441,-5.03029 0.64795,-0.0286 -0.18748,-0.0149 1.05431,-0.0697 -0.2745,2.07399 -1.10878,5.56957 -1.8953,6.9382 -0.45179,0.0495 -0.63504,-0.001 -0.91218,-0.0744 z m 19.43783,-0.66334 c -1.51901,-1.62809 -1.00887,-3.52184 0.18203,-5.22575 0.93294,-1.3013 3.1511,-1.92299 4.53409,-0.88896 2.28026,2.47819 0.3359,5.80595 -2.36819,6.69158 -0.91927,0.33191 -1.6661,0.0161 -2.34792,-0.57687 z m 3.02383,-5.83581 c -0.8008,-0.078 -1.48648,0.10524 -1.81167,0.43529 -1.7722,1.77456 -1.17213,4.84545 1.21235,5.15579 2.96925,-0.48027 2.6837,-5.44706 0.59932,-5.59108 z m -45.14371,2.74538 c -0.99945,-0.64042 -1.7231,-2.55762 -2.67417,-3.92004 -0.56663,0.68551 -0.99077,1.5596 -1.2786,2.69655 -0.40083,0.0818 -0.81788,-0.22891 -1.16686,-0.39261 0.9259,-2.42063 2.26403,-4.44053 2.89978,-6.59624 1.63878,0.27547 3.09937,0.041 3.98017,1.0075 0.20706,0.33324 0.31021,0.65239 0.17166,1.21484 -0.0807,0.39002 -0.33818,0.78623 -0.50819,0.99871 -0.686,0.61389 -0.76947,0.5596 -1.26248,0.67901 -0.5803,0.0922 -1.17883,0.22942 -1.39267,0.324 0.7437,0.95083 0.25601,1.1989 2.8101,3.67142 -0.96888,0.81412 -0.70848,0.90684 -0.68825,1.47483 0.94562,2.33654 3.91811,0.78725 5.38684,-0.30912 1.7542,-1.67842 3.85062,-3.61898 4.5408,-5.7468 0.54062,-0.12383 1.39628,-0.0917 1.32165,0.10261 0.12783,2.88934 -0.52686,4.71042 -0.2611,6.8888 -0.51884,0.11572 -0.43087,0.0746 -1.17281,0.0441 -0.14796,-0.72533 0.0741,-1.8082 -0.0676,-2.8783 -0.21149,-0.10076 -0.85838,-0.48082 -1.11549,-0.52335 -0.9855,0.53732 -1.58041,1.57189 -2.4935,2.35976 -0.88062,0.63303 -1.85169,1.29876 -2.72495,1.74272 -0.59235,0.20189 -1.20321,0.44374 -1.80039,0.54198 -1.73892,-0.0516 -2.9388,-1.47521 -2.50397,-3.38039 z m 10.73911,-2.82796 c -0.36813,0.17557 -0.55528,0.6457 -0.76497,0.95727 0.0471,0.12274 0.32172,0.27301 0.74555,0.32282 0.14682,-0.52608 0.0515,-0.9543 0.0196,-1.28009 z m -10.02379,-3.34244 c -0.29282,-1.1712 -1.22589,-1.12518 -2.04121,-1.04123 -0.35282,0.58677 -0.52144,1.32095 -0.78499,2.29101 0.0192,0.0192 0.45916,0.0262 0.97789,0.0157 l 0.94316,-0.0188 c 0.58609,-0.1816 0.86748,-0.46795 0.90515,-1.24665 z m 63.38631,5.53624 c -0.25902,-1.67911 0.0836,-5.72606 -0.0114,-7.0494 0.15141,-0.22437 0.73992,-0.3334 1.24028,-0.48106 0.077,0.98006 -0.10229,1.29266 -0.0449,2.35619 1.20375,-0.61989 1.71097,-2.07048 2.01392,-2.83608 0.2992,-0.0397 1.0235,-0.0687 1.06184,-0.18951 -0.06,0.86591 -0.99581,2.62237 -2.10457,3.66246 1.12955,1.33535 2.35911,2.07806 4.14405,2.69029 -0.17318,0.42725 -0.20976,0.44284 -0.65349,0.81339 -1.73228,-0.15278 -2.74089,-1.25641 -4.31946,-1.98435 -0.19146,0.72694 -0.17157,2.17123 0.0565,2.77191 -0.46695,0.363 -0.40464,0.39981 -1.38288,0.24614 z m -10.10402,-1.02399 c 0.0333,-0.10288 0.0671,-0.28777 0.0751,-0.4109 0.73684,-0.81286 1.95047,-0.82683 3.12686,-0.90328 0.17792,0.006 0.2143,0.0384 0.17275,0.15309 -0.10762,0.2967 -0.54394,0.76893 -0.75754,0.81987 -0.93816,0.42081 -2.15862,0.41056 -2.61714,0.34123 z m 19.81765,-9.34838 c 0.40762,-0.29569 0.8913,-0.24834 1.17281,-0.25707 -0.0748,2.01092 0.23893,4.39912 0.37612,5.98081 1.10351,0.0567 2.51565,-0.51255 3.36834,-1.02154 0.25855,0.0676 0.22985,0.50207 -0.04,0.60466 -1.11302,0.98819 -2.81367,1.45768 -4.15175,1.98195 -0.56723,-2.10743 -0.63755,-4.87815 -0.72552,-7.28883 z m -89.52356,5.66881 c 1.13036,-1.69341 2.76472,-4.14908 3.44996,-5.82349 -0.0227,-0.0862 -0.002,-0.18062 0.0449,-0.20984 1.4045,0.0963 2.43545,0.75165 3.6713,1.08133 0.087,0.26063 -0.11028,0.49179 -0.16272,0.72571 -0.88957,-0.2087 -1.43127,-0.46492 -2.50894,-0.86936 -0.34158,0.49644 -0.67509,1.02635 -0.95124,1.7804 0.67388,0.15085 1.30996,0.32505 1.96274,0.56719 -0.003,0.32948 -0.0286,0.50097 -0.17616,0.68628 -0.87451,-0.0581 -1.3755,-0.27912 -2.34061,-0.50344 -0.77049,0.66975 -0.83792,0.79505 -1.42433,2.14344 0.83659,0.35541 1.66425,0.69293 2.43747,0.99968 0.0564,0.21372 -0.0444,0.47942 -0.23407,0.63686 -1.27903,-0.29952 -2.65975,-0.62032 -3.76828,-1.21476 z m 99.00938,-2.52459 c -0.29999,-0.0755 -0.56666,-0.23765 -0.71034,-0.489 -0.7475,-1.58004 -0.60195,-3.56384 -1.22397,-5.45708 l -0.16586,-0.27493 c 0.27614,-0.30026 0.65161,-0.51512 0.9661,-0.735 0.17686,0.37467 0.26333,0.80073 0.36618,1.18689 0.30492,2.06221 0.12614,5.7088 2.39805,4.61579 2.30507,-1.68019 1.47363,-4.68881 0.41773,-7.11411 0.29799,-0.23435 0.51658,-0.34021 0.73799,-0.46892 1.66474,3.09912 1.79213,7.24905 -0.39891,8.28343 -0.75362,0.42956 -1.49692,0.64467 -2.38697,0.45293 z m -109.84424,-2.29887 c 0.5681,-0.74844 1.27024,-1.27342 1.78295,-2.12356 0.94505,-1.10247 2.01246,-2.82128 2.36271,-3.69416 0.9119,0.17964 1.96434,0.80394 2.9826,1.26131 0.8361,0.54225 0.54262,2.07364 -0.32947,2.8006 -0.33869,0.37643 -0.82357,0.5453 -1.24465,0.7193 -1.16632,0.19057 -2.06099,-0.0606 -2.58446,-0.64756 -0.52769,0.49168 -1.28517,1.41654 -1.79586,2.4596 -0.5392,-0.0889 -0.8525,-0.45759 -1.17384,-0.77553 z m 6.62651,-2.78281 c 0.43372,-1.1652 -0.80604,-1.48299 -1.49458,-1.77855 -0.78386,0.95882 -1.09597,1.36767 -1.78753,2.46463 1.45436,0.91012 2.87793,0.5153 3.28211,-0.68608 z m 113.40838,0.26024 c -0.93922,-2.02308 -2.14523,-6.04126 -2.49341,-7.07324 1.21109,-0.54124 1.84544,-1.09225 3.25076,-0.77212 0.97998,0.58517 1.0876,1.21091 0.83281,2.16549 0.64413,0.30669 0.86562,0.43106 1.34646,0.89714 0.74767,1.14987 0.42961,2.65175 -0.34977,3.36748 -0.6405,0.81493 -1.56592,1.20181 -2.53977,1.55802 z m 1.91518,-1.92269 c 0.67047,-0.66909 0.53076,-1.21882 0.22793,-2.01739 -0.48746,-0.71375 -1.33045,-0.50408 -2.24337,-0.0453 0.19895,0.92047 0.4247,1.63249 0.67853,2.47254 0.68858,0.17898 0.79779,0.0251 1.3369,-0.40983 z m -1.27087,-3.57755 c 0.39906,-0.8008 -0.20095,-1.54801 -0.61435,-1.55967 -0.33434,-0.0987 -0.88679,0.0918 -1.10022,0.25992 0.21317,0.74771 0.44174,1.19173 0.71551,2.01281 0.39776,-0.12649 0.67634,-0.43212 0.99906,-0.71304 z m -129.92999,2.02132 c 0,0 0.73906,-0.85021 0.94082,-0.87827 0.91363,1.1251 1.27412,2.38035 2.7323,1.79374 1.40183,-1.79594 -1.88533,-4.10331 0.9499,-4.91857 0.77274,-0.13844 1.74129,-0.21739 2.66769,0.3885 0.34468,0.44223 0.24728,0.35877 0.6606,1.03511 -0.22374,0.22174 -0.61869,0.44238 -0.72002,0.44238 -0.10394,-0.18763 -0.1057,-0.29474 -0.18779,-0.49322 -0.5117,-0.67606 -1.05139,-0.87095 -2.1534,-0.7094 -0.47755,0.2356 -0.19393,0.76058 -0.11294,1.16842 0.28636,0.92082 0.6861,1.66071 0.53743,2.67485 -0.1113,0.52011 -0.76305,0.86726 -1.37935,1.11976 -1.99401,0.31264 -2.89301,-0.38192 -3.93524,-1.6233 z m 136.37152,-4.26826 c -0.51516,-0.7738 -0.75506,-1.64322 -0.9528,-2.44458 -0.0243,-1.42387 0.33551,-2.71645 1.09956,-3.42679 0.47939,-0.35775 1.96593,-0.767 3.16676,0.0469 0.97654,0.66188 1.73962,2.44807 1.81646,3.1799 -0.11968,1.23573 -0.0687,2.38846 -1.39624,3.35337 -1.48361,0.6525 -2.51478,0.44787 -3.73374,-0.7088 z m 4.42014,-1.95749 c -0.001,-0.95949 -0.41882,-1.68245 -0.93807,-2.45751 -1.02759,-1.30063 -2.50484,-1.22669 -3.07367,-0.46522 -0.5857,0.99541 -0.62308,1.28373 -0.4502,2.31242 0.42149,1.23501 1.08771,1.91096 2.1967,2.3794 1.49385,0.11044 1.88987,-0.35153 2.26524,-1.76909 z m -148.598151,0.0534 c 1.275441,-0.69291 3.699361,-2.22934 5.237281,-3.61378 -0.63797,-0.70535 -1.36735,-1.18634 -2.26382,-1.1383 -0.94635,0.30301 -0.846797,1.30285 -0.18567,1.92285 -0.26239,0.061 -0.39038,0.0748 -0.75833,0.002 -0.541955,-0.10715 -0.909145,-0.2553 -1.127158,-0.6734 -0.646823,-1.54432 2.009418,-2.05846 2.646908,-1.86947 1.1036,-0.12426 3.3593,1.7426 4.65142,3.495 0.0534,0.0695 -0.40695,0.43721 -0.50071,0.43721 -0.44043,-0.51584 -1.211,-1.09559 -1.72918,-1.42738 -0.58667,0.14455 -0.82917,0.82459 -1.45146,1.05603 0.81858,0.49931 1.56408,1.25344 1.74581,1.62695 -0.44969,0.30383 -0.83237,0.42013 -0.83237,0.42013 0,0 -1.16914,-1.08004 -1.70771,-1.43017 -0.84234,0.52115 -1.17655,0.9023 -2.086453,1.40519 0.846003,1.43362 1.366743,1.42521 2.265623,2.36496 -0.36845,0.16993 -0.8169,0.36202 -0.89762,0.45936 -0.3229,-0.36735 -2.041867,-1.77694 -3.006561,-3.03723 z"
       style="display:inline;fill:#000f35;fill-opacity:1;stroke-width:0.0828954"
       id="path2422"
       sodipodi:nodetypes="ccccccccccscccccccccssscccssccccscccccccccccccccccccccssccccccccccccccccccccccccsccccssscccccsscccccccccccccccccccccccccscccccccssccccccccccccscccssscccssccccccccccccccccscccccccccccccscccccccccccccc"
       inkscape:label="esperanto klubo" /><path
       d="m 118.61295,58.161365 c 0.40998,-0.262902 0.70889,-0.332926 1.18278,-0.491764 0.53401,1.53982 0.70905,4.706462 1.04879,6.182544 1.27705,-0.153441 2.15215,-0.828113 3.36648,-1.104009 -0.055,0.393711 -0.15947,0.839258 -0.56445,1.062002 -1.57416,0.763043 -2.63205,1.2718 -3.68781,1.638915 -0.78273,-2.579883 -0.5772,-4.887693 -1.34577,-7.287688 z m 11.11973,-4.732814 c 0.43641,-0.239052 0.72463,-0.250488 1.26648,-0.394526 0.73457,2.007706 2.08222,4.786135 2.69533,6.599561 -0.54049,0.221428 -0.8482,0.218882 -1.05591,0.271948 -0.4309,-0.951229 -0.78901,-2.00917 -1.16063,-2.82862 -0.85628,0.06411 -1.33753,0.300381 -1.77472,0.486696 -0.34006,1.220186 -0.83716,3.896834 -0.94229,4.062694 -0.2188,0.03133 -0.80155,0.148467 -0.75753,0.06011 0.71561,-2.855619 1.22274,-5.370253 1.72927,-8.257857 z m 1.4504,3.014402 c -0.12623,-0.395262 -0.70237,-1.751391 -0.8042,-1.751391 -0.23134,0.545143 -0.28875,1.627624 -0.41428,2.109577 0.96744,-0.135896 0.82838,-0.224444 1.21848,-0.358186 z m 87.82364,4.31687 c 0.2461,-0.896647 0.63435,-1.92654 1.00813,-2.83928 -0.42937,-0.359361 -0.89952,-0.687051 -1.46194,-0.883387 -1.29069,0.724028 -3.09576,2.063321 -3.41105,2.403406 -0.35501,-0.312952 -0.35928,-0.245592 -0.62192,-0.673426 1.95746,-1.78139 5.3518,-2.717263 6.5066,-4.651413 0.62181,-0.09673 0.72368,-0.0282 1.62334,0.295172 -0.61092,1.867463 -1.93636,5.14109 -2.29359,6.850847 -0.49038,-0.08553 -0.93412,-0.293528 -1.34957,-0.501907 z m 1.74552,-4.669902 c 0.0549,-0.111928 -0.20466,-0.192879 -0.31514,-0.27657 -0.31307,0.105466 -0.67607,0.464784 -1.07395,0.763293 0.2217,0.167814 0.57462,0.387206 0.87236,0.471105 0.14138,-0.383485 0.29768,-0.52401 0.51672,-0.957848 z m -12.46047,0.883685 c -0.20043,-0.167579 0.30039,0.15865 -0.27273,-0.151953 -0.22158,-2.064853 -0.31162,-2.928561 -0.89319,-4.984211 -0.99854,1.369426 -2.22384,3.841497 -2.28985,4.211984 -0.52274,-0.02467 -0.79904,-0.107072 -1.0638,-0.181991 1.0133,-2.186783 2.4747,-3.947214 3.13734,-6.370209 -0.009,-0.03963 0.76063,-0.0063 1.01542,0.02546 0.45823,1.742606 1.03365,3.517809 1.18427,5.332319 0.72537,-0.99385 1.50711,-2.219304 2.21697,-4.299783 0.63817,0.0748 0.80905,0.302182 1.21149,0.533374 -1.3706,1.935466 -2.51084,4.849995 -3.47041,6.174241 -0.26427,-0.113103 -0.56195,-0.209562 -0.77551,-0.289219 z m -60.73914,-1.325884 c 0.19068,-2.562475 0.42493,-5.880937 0.88833,-7.985924 0.18967,-1.054131 0.36633,-1.360535 0.42069,-1.787237 0.17126,-0.105701 0.61126,-0.08557 1.68904,-0.09713 -0.20992,0.497776 -0.32208,0.50432 -0.50536,0.578847 -0.27058,0.562391 -0.18148,0.463672 -0.5629,1.342289 -0.63612,2.395645 -0.53801,4.438222 -0.70617,6.642053 1.3541,0.132175 2.76201,-0.138364 3.82227,-0.774373 0.15987,0.364217 -0.083,0.895395 -0.2056,1.101369 -1.39024,0.921568 -3.2829,0.905589 -4.84,0.980089 z m 45.69744,-2.822487 c -0.485,-1.26934 -0.56936,-2.306506 0.19942,-3.886096 0.70899,-1.083342 1.37123,-1.752566 2.83843,-2.085218 2.23256,-0.60178 3.16687,0.601217 3.54074,2.038822 0.14729,1.323193 -0.40362,2.333136 -1.1216,3.285004 -0.41745,0.523454 -1.15682,0.982669 -1.53424,1.214198 -1.36518,0.673328 -3.04908,0.631924 -3.92275,-0.56671 z m 3.47459,0.169184 c 2.15324,-0.942069 2.42149,-3.036431 1.601,-4.916141 -0.73993,-0.866954 -1.62243,-0.71119 -2.6039,-0.543623 -2.44727,1.432881 -1.99438,5.552511 1.0029,5.459764 z M 160.23,53.058769 c -1.3231,-0.577546 -1.83241,-1.426877 -1.95041,-2.710833 0.13981,-1.231277 0.51076,-2.480174 0.9973,-3.253384 1.03083,-1.584897 2.4736,-1.54578 4.10459,-1.147139 1.17446,0.625776 1.37748,1.638872 1.47317,2.941124 -0.0153,0.903788 -0.39647,2.14531 -0.98619,2.854923 -0.98565,1.102062 -1.92897,1.652614 -3.63823,1.315372 z m 3.39031,-2.389409 c 0.39231,-2.488778 -0.1064,-4.210226 -1.92034,-4.270083 -1.64527,-0.08432 -2.4285,2.40374 -2.4011,3.774238 -0.001,0.716553 0.50262,1.353615 0.93763,1.602227 1.47078,1.012461 2.82044,0.67202 3.38381,-1.106382 z m 18.36971,1.48729 c -0.69726,-0.05549 -0.76024,-0.08095 -1.30019,-0.234078 0.96641,-2.237394 1.42127,-4.798244 2.13868,-7.173625 0.97619,-0.147802 1.70532,0.233804 2.62518,0.502502 2.00749,1.351865 1.90383,4.42547 0.84691,5.675784 -1.42817,1.145984 -2.97418,1.23071 -4.31058,1.229417 z m 3.54347,-5.570983 c -0.39381,-0.672048 -0.92216,-0.619483 -1.67796,-0.892767 -0.7713,1.645776 -1.41976,3.578144 -1.73301,5.29432 3.18799,1.106989 5.20288,-1.785428 3.41097,-4.401553 z m -14.40263,-1.47463 c -0.10261,-0.191703 0.7703,-0.09395 1.43323,-0.120896 0.50786,1.683885 1.5163,3.43644 2.30622,4.67712 0.43621,-1.198928 0.69758,-3.672351 0.66278,-5.059654 0.45416,-0.0439 0.68104,0.06039 1.11786,0.106093 -0.36903,2.48185 -0.47891,5.236021 -1.20308,7.165053 -0.34424,0.137188 -0.39566,0.08115 -0.67699,0.05228 -0.82063,-1.78882 -1.68731,-4.126491 -2.69986,-5.524858 -0.63901,1.418798 -1.06233,3.987802 -1.09766,5.489015 -0.51045,0.105976 -0.34158,0.130649 -0.82602,0.01332 -0.30876,-1.010397 1.06106,-5.844072 0.98352,-6.79737 z"
       style="display:inline;fill:#000f35;fill-opacity:1;stroke-width:0.0828954"
       id="path2369"
       inkscape:label="la londona"
       sodipodi:nodetypes="ccccccccccccccccccsccscccccccsscsccccsccccccccccsscccccccccsccccccccccccccccccscccccccsccccscccccccccccccccc" /><path
       id="path1484"
       style="fill:#000f35;fill-opacity:1;stroke:none;stroke-width:22.1472;stroke-opacity:1;stop-color:#000000"
       d="m 173.18929,54.419636 a 83.404043,49.881126 0 0 0 -83.403294,49.880874 83.404043,49.881126 0 0 0 83.403294,49.88291 83.404043,49.881126 0 0 0 83.4053,-49.88291 83.404043,49.881126 0 0 0 -83.4053,-49.880874 z m -0.087,3.296789 A 82.420724,46.172999 0 0 1 255.524,103.88968 82.420724,46.172999 0 0 1 173.10226,150.06294 82.420724,46.172999 0 0 1 90.682546,103.88968 82.420724,46.172999 0 0 1 173.10227,57.716425 Z"
       inkscape:label="ringo" /><use
       x="0"
       y="0"
       xlink:href="#path2145"
       id="use2654"
       transform="matrix(-1,0,0,1,346.28373,0.80281933)"
       style="display:inline;fill:#000f35;fill-opacity:1" /><path
       style="fill:#000f35;fill-opacity:1;stroke:none;stroke-width:1.03619px;stroke-linecap:butt;stroke-linejoin:miter;stroke-opacity:1"
       d="m 262.34209,100.33945 c 0.32552,-0.29278 0.46647,0.0251 0.39852,0.40408 0,0 -0.0521,0.76652 -1.09042,2.33742 -1.96043,2.96583 -8.39952,-0.37385 -10.18766,-4.807857 -1.72462,-4.276521 -1.66434,-10.957286 4.44978,-10.99576 1.20299,0.08279 1.69008,0.383681 2.61582,1.063322 4.51797,3.336085 4.53979,10.440654 2.65456,11.150517 -2.35587,0.887078 -5.08782,-3.884533 -5.63019,-11.188795 -0.26282,-3.539501 -2.58269,-8.836661 -4.50326,-11.956655 -2.04279,-3.318547 -5.14897,-5.456999 -6.75659,-4.112015 -0.37467,0.313461 -2.801,3.473911 5.51104,7.916554 0.30849,0.880485 -0.75077,0.345066 -0.75077,0.345066 0,0 -9.93119,-4.961182 -5.32629,-8.866632 2.56475,-2.17518 6.26985,0.619991 8.80945,4.102264 0.97875,1.342058 1.74632,2.915982 2.42448,4.715606 0.55636,1.476431 0.99491,3.80932 1.35513,6.313537 0.77233,5.369054 1.51835,11.565211 4.56546,12.001195 1.8392,-2.774015 -0.89259,-9.198321 -4.87143,-10.547189 -3.85352,-0.393978 -5.50227,3.73491 -3.82279,9.863052 0.87491,3.19241 8.01141,7.07793 9.29408,4.19659 z"
       id="path2145"
       sodipodi:nodetypes="ccssccssssccssssccssc"
       inkscape:label="parafo - dekstra" /><path
       style="fill:#000f35;fill-opacity:1;stroke:none;stroke-width:1.03619px;stroke-linecap:butt;stroke-linejoin:miter;stroke-opacity:1"
       d="m 207.87557,107.03468 c 4.60097,-2.81051 10.38815,-4.23022 17.59318,-4.66387 5.92436,-0.35658 8.37588,0.46911 14.35854,0.12814 1.48671,-0.0847 5.80727,-1.12654 6.53756,-1.97411 1.51143,-1.754136 1.09707,-3.492768 -0.25283,-4.644901 -3.39706,-2.89936 -7.5335,-1.288678 -9.84451,-0.466495 -0.59286,0.01292 -0.46954,-0.08839 -0.6339,-0.204902 3.91901,-2.421312 8.99172,-1.717151 10.94426,0.27144 2.23698,2.278296 1.35856,4.589868 0.48286,5.544238 -2.29018,2.49593 -5.44049,2.57871 -7.37496,2.70697 -5.32468,0.35302 -9.80016,0.0647 -15.85011,0.11753 -5.61788,0.3639 -10.79347,1.35887 -15.5798,3.79565 -0.34197,0.11005 -0.58307,-0.32587 -0.38031,-0.60967 z"
       id="path2214"
       sodipodi:nodetypes="cssssccssscccc"
       inkscape:label="parofo - mez-dekstra" /><path
       style="fill:#000f35;fill-opacity:1;stroke:none;stroke-width:1.03619px;stroke-linecap:butt;stroke-linejoin:miter;stroke-opacity:1"
       d="m 186.16602,95.136204 c 1.68347,-1.285264 3.55745,-2.084814 5.44091,-0.482271 1.60396,2.210012 -0.26188,4.307773 -2.92189,5.991987 -3.79124,1.50112 -8.27924,2.78482 -10.22914,4.34784 -3.00594,1.92362 -2.39943,6.35166 1.3265,4.49709 0.21598,-0.40498 0.12888,-0.60386 -0.28981,-0.57728 -2.28768,1.08742 -2.85208,-1.85699 -0.46621,-2.90206 0.87622,-0.49354 2.12412,-0.76682 3.31763,-1.13709 3.60694,-1.01708 7.78423,-2.37042 9.52119,-5.459863 0.4185,-0.744369 1.22942,-1.649563 1.12525,-3.429645 -0.0697,-1.192157 -0.71782,-1.909512 -1.39117,-2.304884 -1.9744,-0.844772 -4.34086,-0.299323 -5.83978,1.000305 -0.0739,0.183401 -0.17518,0.47725 0.40652,0.455875 z"
       id="path2216"
       sodipodi:nodetypes="ccccccccsscccc"
       inkscape:label="parafo - meza" /><path
       style="fill:#000f35;fill-opacity:1;stroke:none;stroke-width:1.03619px;stroke-linecap:butt;stroke-linejoin:miter;stroke-opacity:1"
       d="m 121.99612,99.976071 c -1.69842,-0.51543 -5.41852,-3.03819 -6.82015,-5.982577 -1.06433,-2.235835 -2.47125,-5.27325 -0.17588,-8.690245 0.7408,-1.102791 2.45632,-1.840793 6.24605,-0.707953 2.02764,0.606109 3.34806,2.0649 4.43076,3.667903 1.13774,3.101685 -0.87291,2.903954 -2.65354,0.863727 -0.56822,-0.651068 -0.9029,-2.168827 -0.81161,-3.101807 0.15524,-1.586444 0.3457,-3.065518 1.56416,-4.494694 0.97659,-1.145487 1.98132,-2.19464 3.36813,-2.922385 0.0888,-0.259417 0.19722,-0.522656 -0.3285,-0.66362 -1.19844,0.818639 -2.47779,1.644371 -3.5953,3.012695 -1.37357,1.68185 -1.69678,3.103891 -1.82194,4.731417 -0.14573,1.894673 0.49059,3.477718 1.70822,4.520182 2.9679,2.540935 4.62459,0.333356 2.99834,-2.458678 -1.36939,-2.270918 -2.57751,-3.337733 -5.01203,-4.173412 -1.91911,-0.658759 -3.81087,-0.560914 -5.30618,0.01488 -3.35476,1.67209 -4.03554,6.131827 -2.85199,9.263805 1.10274,2.850388 3.39287,4.748617 5.85856,6.565246 1.06941,0.663255 1.98854,0.960215 2.85901,1.138585 0.35627,0.0309 0.76254,-0.26545 0.34389,-0.583071 z"
       id="path2218"
       sodipodi:nodetypes="cssscsssccssscsccccc"
       inkscape:label="parafo - maldekstra supra" /><path
       style="fill:#000f35;fill-opacity:1;stroke:none;stroke-width:1.03619px;stroke-linecap:butt;stroke-linejoin:miter;stroke-opacity:1"
       d="m 111.61932,97.538929 c -2.03454,-1.402957 -5.09764,-1.815039 -7.69053,-1.409677 -7.005696,1.09524 -6.714252,6.181888 -2.63718,8.005718 4.523,2.02331 16.10174,0.21117 23.47075,0.26177 5.98047,0.0411 11.86443,-0.64795 18.35532,3.09554 2.37009,1.3669 4.3823,3.15087 3.64972,5.48594 -0.87863,2.80059 -4.95895,3.93464 -9.51846,3.99012 -5.08752,0.0619 -8.60841,-2.16943 -11.23738,-5.01162 -4.20125,-4.54198 -1.04196,-10.73058 8.91252,-10.86233 3.45562,-0.0457 9.36848,0.92035 12.55448,4.25444 2.10089,2.19854 4.3327,4.19476 3.29027,10.04759 -0.29834,1.67516 -2.14171,2.77785 -3.71493,3.97041 -0.0624,0.40364 0.15269,0.46797 0.47878,0.39664 1.64676,-1.12042 3.39974,-2.16037 3.91734,-4.23182 1.33912,-5.35916 -1.17602,-8.49819 -3.29942,-10.63304 -3.35777,-3.37587 -7.71428,-4.57174 -12.53547,-4.56431 -13.5823,0.0212 -14.0532,8.11537 -10.14693,12.26015 3.95101,4.19224 8.00309,5.06331 11.75713,5.03565 8.16592,-0.0602 9.70272,-3.02411 10.18157,-4.31281 1.03689,-2.7905 -1.10229,-5.01267 -3.87004,-6.60856 -2.98314,-1.72008 -5.19048,-2.17961 -7.4735,-2.9055 -3.65091,-0.85434 -5.28198,-1.18919 -9.22831,-1.27841 -7.99955,-0.18086 -15.09601,1.80342 -21.58083,1.52232 -8.891778,-0.38544 -7.175132,-7.294015 0.51192,-7.507184 1.53894,-0.04269 1.67554,-0.198127 5.64066,1.412125 0.43952,0.05581 0.39077,-0.189472 0.21254,-0.413152 z"
       id="path2220"
       sodipodi:nodetypes="cssssssssssccssssssscsssccc"
       inkscape:label="parafo - maldekstra" /><path
       style="fill:#000f35;fill-opacity:1;stroke:none;stroke-width:1.03619px;stroke-linecap:butt;stroke-linejoin:miter;stroke-opacity:1"
       d="m 117.21977,131.69786 c 17.20321,7.17436 45.04395,1.11318 57.31807,-10.31663 0.75005,-0.247 0.43029,0.24097 0.60746,0.38756 -20.304,16.88565 -43.42992,17.20124 -57.97613,10.44514 -0.24864,-0.18618 -0.19483,-0.35623 0.0506,-0.51607 z"
       id="path2222"
       sodipodi:nodetypes="ccccc"
       inkscape:label="parafo - maldekstra malsupra" /><path
       style="fill:#000f35;fill-opacity:1;stroke:none;stroke-width:1.03619px;stroke-linecap:butt;stroke-linejoin:miter;stroke-opacity:1"
       d="m 213.87958,107.7307 c -0.42954,-0.30426 22.1473,-8.09099 27.86273,7.69959 5.65865,15.63371 -23.96526,23.11237 -28.8507,22.97087 -2.7928,-0.0809 -24.80133,1.15109 -42.11617,-3.93539 -16.8403,-4.94707 -37.71467,-14.20349 -45.13278,-14.8166 -5.04789,-0.79139 -8.62847,0.36018 -10.5828,1.299 -2.24163,1.07683 -0.96278,1.51747 0.55835,1.58378 2.65069,-0.11631 6.79838,-1.5709 8.5195,-3.27209 0.0278,0.42202 23.81888,-33.956071 32.54581,-31.107184 3.88484,3.151838 -12.82078,10.535213 -12.82078,10.535213 0.2302,0.4824 -30.48952,2.953091 -26.25298,-14.681684 4.41998,-18.398377 30.89525,-16.141413 37.24327,-15.088817 9.19108,1.524017 30.7758,17.306312 2.24238,32.158512 0,0 -0.93889,-0.0746 -0.46122,-0.72551 23.58394,-10.612104 13.72189,-27.359864 -2.83906,-29.577288 -15.70802,-2.103221 -33.11295,2.896893 -35.1314,13.147778 -2.3683,12.027626 13.40652,15.682828 25.20089,13.212534 l 6.24466,-3.114147 c 2.94994,-1.694107 5.86468,-3.241223 6.08938,-5.001524 -3.70617,-0.341816 -5.19722,2.511183 -6.02239,3.616265 -6.4939,8.788422 -10.81514,17.171152 -23.05232,26.298372 -6.24204,4.60153 -9.71875,5.1414 -12.46823,4.4606 -2.40333,-0.59508 -3.14986,-1.62754 -0.12947,-3.24206 2.98465,-1.59542 7.2541,-2.42637 13.17289,-2.78675 6.6666,1.23013 6.66349,0.10249 22.71428,6.21204 10.6497,4.20609 21.79105,8.06663 34.65166,10.71875 9.96508,2.54735 19.062,3.50941 28.00803,2.74892 20.61517,-1.75248 31.21961,-12.92474 28.0392,-21.61996 -3.55848,-9.72883 -16.35621,-10.60547 -27.08765,-7.20758 z"
       id="path2243"
       sodipodi:nodetypes="cssscsccccssccsscccccsscccsscc"
       inkscape:label="L" /><path
       style="fill:#000f35;fill-opacity:1;stroke:none;stroke-width:1.03619px;stroke-linecap:butt;stroke-linejoin:miter;stroke-opacity:1"
       d="m 178.66304,112.28632 c 1.59451,5.51964 2.94875,11.82919 -5.56671,24.10961 -3.10836,4.48266 -7.09727,7.73874 -12.1731,6.21018 -1.70492,-0.51343 -3.94815,-2.63974 -4.86089,-6.77478 -0.91712,-4.15482 1.20837,-9.50846 2.72205,-13.4356 1.00249,-3.30167 2.11573,-5.58325 4.65584,-8.32064 8.12152,-8.75232 10.77808,-5.40075 3.13901,3.23703 -1.00777,1.13953 -4.9099,4.9285 -7.62451,4.60112 -0.98999,-0.11941 -1.24594,-0.64566 -1.68869,-1.36867 0.15344,-2.5781 1.96197,-7.50806 11.11989,-15.94359 2.28425,-1.67334 5.07718,-2.88945 6.0987,-2.81531 1.43803,0.10437 1.64567,1.84505 0.004,0.71937 l -1.45163,-0.99556 c 1.73383,-6.208583 5.54643,-9.005008 9.62999,-11.355748 4.37376,-2.517798 4.3434,-0.431887 0.99895,0.983767 -3.87067,1.638397 -5.6644,1.266947 -8.28318,1.414239 -14.00587,0.787775 -15.82721,-1.191683 -19.7583,-3.408587 -1.548,-0.872978 -10.63158,-6.595162 -5.97634,-15.393275 5.304,-10.024216 16.50253,-10.363538 21.49716,-10.879829 11.05104,-1.142338 19.8993,0.584224 25.16663,5.659806 6.26789,6.039711 3.19195,15.013012 -3.37394,18.902151 0.0196,0.438161 0.16202,0.636334 0.46047,0.530155 10.05785,-6.357407 7.85121,-16.240808 4.14409,-19.783361 -6.01768,-5.750539 -14.88391,-8.536737 -26.47059,-7.091575 -2.89104,0.360575 -16.7115,1.813077 -22.22529,12.609885 -3.47345,6.801497 0.65733,12.109591 6.07722,16.028661 5.8405,4.2232 13.13442,4.111394 20.32003,3.976261 2.74127,-0.05154 5.83413,-0.04864 8.59569,-1.737472 6.41024,-3.92018 2.35149,-4.383738 -1.76761,-3.461532 -12.19555,2.730403 -12.04388,7.020349 -11.20379,11.20146 0.82024,2.546554 1.89536,3.481834 3.53371,3.736554 3.19206,0.4963 2.05085,-2.45686 0.91471,-2.45997 -13.88093,-0.038 -22.18675,12.51286 -20.35186,17.6691 0.65108,1.82962 1.41594,3.80125 2.63345,4.87732 3.32117,-0.42084 7.44639,-2.38389 10.33386,-5.86383 9.38636,-11.31231 3.26631,-12.51968 -5.44577,-3.89389 -2.22677,2.20471 -3.89786,4.90345 -4.98678,8.03643 -2.5471,4.2063 -3.57667,11.72735 -2.64226,14.28664 4.63819,12.7037 15.29041,6.83285 19.09108,0.67817 5.67934,-9.1969 8.47983,-17.74113 5.21599,-24.88694 -0.24278,-0.0145 -0.46438,0.0125 -0.50128,0.40225 z"
       id="path2259"
       sodipodi:nodetypes="cssscsssccsscsssssssccssssssscssscsscsscc"
       inkscape:label="E" /><path
       style="fill:#000f35;fill-opacity:1;stroke:none;stroke-width:1.03619px;stroke-linecap:butt;stroke-linejoin:miter;stroke-opacity:1"
       d="m 143.16429,114.2728 c -7.6106,-6.68954 -27.87001,-11.88604 -36.58373,2.42031 -1.86326,6.01096 -0.3697,20.63028 29.02144,21.88836 22.42918,-0.58311 37.95524,-9.90025 47.63351,-24.32332 6.66373,-7.6518 11.99693,-15.358216 21.37789,-23.129631 3.61407,-2.993983 16.56282,-8.29048 4.67298,2.102735 -2.82205,2.466827 -5.93742,3.060877 -9.04684,4.739409 -4.80591,0.516868 -10.99719,1.13413 -18.26626,-1.704356 -8.1008,-3.163269 -7.68899,-9.143821 -7.25624,-11.769322 4.55473,-18.358692 28.06102,-19.05616 39.07313,-15.757112 9.50271,2.979281 12.68578,8.519463 14.14428,14.336869 1.15525,4.60788 -1.49945,9.247024 -5.26593,13.048942 -2.49988,2.523399 -4.4795,4.746356 -11.48128,5.985636 -0.14824,-0.16151 -0.17373,-0.34479 -0.13273,-0.53986 4.93243,-1.01306 8.50263,-3.093121 11.07413,-6.025414 3.18421,-3.630951 6.07565,-7.875903 4.94588,-12.358504 -1.33434,-5.294269 -4.12766,-10.6193 -13.74207,-13.066005 -15.93984,-3.705738 -35.23639,1.853834 -37.86117,14.391721 -0.66277,3.574028 -0.52047,8.181461 6.68159,10.965071 5.05834,1.955055 10.60676,3.593935 18.80827,0.319728 2.21283,-0.868466 4.24408,-1.008545 7.41082,-3.2878 3.92045,-2.821736 7.13948,-7.278924 -2.8354,-0.744382 -0.86523,0.566812 -2.98605,3.601239 -3.59658,4.449724 -7.73047,10.743341 -14.71915,19.862621 -25.18077,29.491611 -6.69293,4.66367 -19.0778,13.03249 -40.98082,13.62807 -15.43481,-0.25115 -33.67856,-6.496 -30.01915,-22.83786 5.57864,-10.8247 23.09267,-14.19232 37.93654,-2.66851 -0.0813,0.2094 -0.12266,0.44452 -0.53149,0.44389 z"
       id="path2291"
       sodipodi:nodetypes="ccccsscsccssccssccscsssccccc"
       inkscape:label="K1" /><path
       style="font-variation-settings:normal;opacity:1;vector-effect:none;fill:#000f35;fill-opacity:1;stroke:none;stroke-width:1.03619px;stroke-linecap:butt;stroke-linejoin:miter;stroke-miterlimit:4;stroke-dasharray:none;stroke-dashoffset:0;stroke-opacity:1;-inkscape-stroke:none;stop-color:#000000;stop-opacity:1"
       d="m 195.098,104.88799 c 0.25069,-0.72653 -0.0188,-1.4982 2.02989,-2.09909 1.33474,0.15109 2.60573,0.23137 3.76025,0.86742 7.7725,-4.02042 8.46173,-8.839002 20.64193,-16.353268 8.16833,-5.039251 14.39687,-0.178976 9.39144,6.959305 -2.8597,4.078234 -7.06068,6.089023 -11.02742,7.370563 -0.32995,-0.0748 -0.30872,-0.25522 -0.33108,-0.42256 4.14334,-1.729143 8.23068,-3.677239 10.19762,-6.959983 6.03728,-10.07599 -4.52448,-9.802827 -11.2729,-2.040325 -4.51019,5.187937 -10.2459,9.325568 -17.28066,12.500938 0.79507,1.40261 0.77071,3.93937 -0.99261,8.0561 -1.41581,3.30543 -4.6766,5.48865 -5.71705,8.87753 -0.22193,0.72287 -1.46939,4.62029 3.04769,4.85037 4.9547,0.25236 7.72285,-2.576 10.14928,-5.29435 8.07954,-9.05159 3.07544,-19.06616 -5.78332,-4.23556 -2.99771,5.01852 -7.21461,14.55018 -0.32807,16.64482 7.09248,2.15729 12.43195,-3.28881 17.06573,-8.39373 4.23567,-4.66634 5.07807,-9.67023 6.17927,-14.65146 0.26079,-0.27277 0.4629,-0.18736 0.64362,0.0286 -0.7651,5.35878 -2.4001,10.74545 -6.24009,15.12906 -4.84211,5.5276 -10.78776,10.88933 -17.90442,8.57074 -7.8908,-2.5708 -3.99653,-13.12559 -0.6352,-18.35554 7.14733,-11.12068 18.28943,-8.44174 8.17899,5.46178 -2.28466,3.14178 -5.78337,5.8261 -11.14261,6.04977 -3.69651,0.15426 -5.11086,-3.26558 -5.48325,-6.50896 -0.34244,-2.98255 0.29548,-4.15107 0.97258,-5.32986 2.10059,-3.65706 7.86458,-8.88664 6.77521,-10.61008 -2.14744,8.4e-4 -3.62166,-0.0482 -4.89483,-0.11224 z"
       id="path2309"
       sodipodi:nodetypes="cccssccsscsssssssccsssssssccc"
       inkscape:label="K2" /><path
       d="m 205.42918,83.69257 c 0.1312,-0.20263 0.34988,-0.543741 0.56137,-0.690622 0.74283,0.337469 0.46338,0.495093 1.65553,0.394608 1.90434,-0.882839 2.06295,-3.129119 -0.77901,-2.662604 0,-0.133742 -0.12344,-0.863876 -0.0333,-0.808221 2.28629,-0.305277 4.18569,-2.463977 0.34017,-1.775226 -0.0558,-0.182853 -0.0437,-0.540996 -0.027,-0.719909 0.0997,-0.08075 0.31949,-0.01723 0.39424,-0.02115 1.74569,-0.08831 2.03007,-0.05138 2.39451,0.310995 0.2022,0.201024 0.23753,0.483124 0.14115,1.126985 -0.12192,0.519374 -0.8928,0.997215 -1.32524,1.233941 3.2818,2.195936 -0.8739,5.159113 -3.32241,3.611201 z m -19.12066,-3.812762 c 0.39978,-0.633241 1.05299,-1.09074 1.78491,-1.438924 0.45023,-0.287849 1.10592,-0.142123 1.36761,-0.132411 0.95246,0.705074 0.62356,1.912364 0.18982,2.877026 -0.4229,0.704337 -0.7081,1.175317 -1.51081,1.561575 -0.62656,0.27285 -1.39151,0.449922 -1.74389,0.329049 -0.56627,-1.058513 -0.4761,-2.24749 -0.0876,-3.196315 z m 2.0538,-0.639499 c -1.37743,0.662343 -1.56009,1.609539 -1.48526,2.681042 0.12873,0.453278 0.52735,0.465587 0.938,0.214457 1.52534,-1.117226 2.04922,-3.038997 0.54726,-2.895499 z m -51.04585,4.766303 c 0.28656,-0.76775 0.81594,-2.742438 1.03243,-3.415895 -0.43336,0.303397 -0.59099,0.339505 -0.81334,0.406145 -0.10452,-0.18951 -0.22393,-0.56147 -0.22546,-0.561858 0.60231,-0.247942 1.11936,-0.613866 1.67251,-1.020489 0.28409,0.05213 0.50315,0.08765 0.66997,0.116667 -0.34859,1.55458 -1.16482,3.93501 -1.3997,4.634699 z m 20.40699,1.301653 c -0.19566,-0.01645 -0.3748,-0.103625 -0.51665,-0.251701 l -0.21716,-0.226637 c 0.21932,-0.325877 0.48825,-0.558796 0.75663,-0.81945 1.60336,0.494368 2.20927,0.200868 2.98741,-0.873917 0.0693,0 0.0732,-0.02624 0.0125,-0.08683 -0.64308,0.09638 -1.3717,0.0457 -2.03591,-0.06434 -0.40372,-0.231885 -0.6925,-1.418058 -0.43479,-1.785976 0.56178,-1.995264 2.36695,-2.638824 3.93358,-2.208331 0.71642,0.837077 0.40737,1.974037 0.17941,3.00075 -1.23524,3.024847 -2.4729,3.288317 -4.66511,3.316487 z m 2.84272,-5.719698 c -1.10896,0.356189 -1.65632,2.317162 -0.56885,2.582813 1.42083,0.235018 2.28506,-2.701626 0.56885,-2.582813 z"
       style="display:inline;fill:#000f35;fill-opacity:1;stroke-width:0.0828954"
       id="path2616"
       inkscape:label="1903"
       sodipodi:nodetypes="ccccccccscccsccccccsccccsccccssssscccccccccsccc" /><path
       d="m 172.28581,75.566255 c -0.0798,-0.04766 -0.14506,-0.138873 -0.14506,-0.202709 0,-0.06388 -0.0617,-0.15066 -0.13715,-0.192839 -0.18191,-0.101824 -0.0904,-0.323253 0.15282,-0.3697 0.17987,-0.03446 0.18074,-0.03721 0.0141,-0.0479 -0.18744,-0.01175 -0.34981,-0.277588 -0.20013,-0.327482 0.0482,-0.01606 0.0877,-0.08087 0.0877,-0.144042 0,-0.06431 0.051,-0.09524 0.11596,-0.07034 0.0638,0.02428 0.14451,-0.0017 0.17941,-0.05816 0.0435,-0.07034 0.0227,-0.08694 -0.0664,-0.05283 -0.22644,0.0869 -0.2349,-0.03963 -0.0212,-0.31965 0.11377,-0.149172 0.20686,-0.30602 0.20686,-0.348591 0,-0.04257 0.14843,-0.175607 0.32979,-0.295642 0.24387,-0.161392 0.43593,-0.218256 0.73719,-0.218256 0.483,0 0.56837,0.121444 0.35983,0.511913 -0.20615,0.38607 -0.34882,0.527226 -0.73503,0.727345 -0.32783,0.169851 -0.51652,0.481515 -0.40286,0.665417 0.0251,0.04034 0.007,0.09677 -0.0388,0.12544 -0.13437,0.08303 -0.0976,0.208191 0.0608,0.20682 0.12477,-0.0011 0.12767,-0.01332 0.0208,-0.08651 -0.099,-0.06783 -0.0838,-0.08025 0.0744,-0.0609 0.26447,0.03251 0.4114,0.26537 0.28973,0.459529 -0.1059,0.168989 -0.66082,0.231336 -0.88225,0.09912 z m 1.9312,-0.234823 c -0.0565,-0.136444 -0.0798,-0.285107 -0.0519,-0.330419 0.0452,-0.07304 0.18795,-0.665061 0.24285,-1.006743 0.011,-0.0692 0.0482,-0.171026 0.0823,-0.226246 0.0341,-0.05526 0.0231,-0.173375 -0.0247,-0.26251 -0.15218,-0.284364 -0.097,-0.425825 0.21755,-0.557233 0.27223,-0.11373 0.33794,-0.113926 0.62364,-0.0017 0.27806,0.109226 0.34859,0.110205 0.5454,0.0074 0.69478,-0.362651 1.0899,-0.190176 1.02892,0.449131 -0.018,0.189119 -0.0662,0.343852 -0.10699,0.343852 -0.0408,0 -0.0742,0.03486 -0.0742,0.0775 0,0.04261 -0.0431,0.1825 -0.0958,0.310838 -0.0527,0.128337 -0.0882,0.295329 -0.0789,0.37107 0.009,0.07574 -0.0243,0.163272 -0.0749,0.194485 -0.0616,0.03799 -0.0448,0.09109 0.0509,0.161078 0.13218,0.09665 0.12548,0.126967 -0.091,0.410794 -0.19174,0.251388 -0.27865,0.301947 -0.48366,0.281465 -0.33712,-0.03368 -0.46293,-0.37859 -0.27626,-0.75738 0.10946,-0.222133 0.19625,-0.513609 0.2322,-0.780083 0.005,-0.03446 0.0402,-0.146156 0.0791,-0.248333 0.0736,-0.193701 0.0227,-0.435917 -0.0916,-0.435917 -0.0364,0 -0.0456,0.07883 -0.0204,0.175216 0.0388,0.148663 0.0188,0.166678 -0.13206,0.118782 -0.14122,-0.04484 -0.19468,-0.01214 -0.25957,0.158493 -0.045,0.118233 -0.15689,0.295603 -0.24876,0.394228 -0.0919,0.09861 -0.16703,0.248725 -0.16703,0.333552 0,0.08487 -0.0647,0.273672 -0.14373,0.419571 -0.0791,0.145921 -0.14436,0.339896 -0.14506,0.431084 -9.2e-4,0.116549 -0.0655,0.173258 -0.21744,0.190881 -0.17294,0.01997 -0.23662,-0.02428 -0.31882,-0.222956 z m -5.05097,-4.865671 c -0.25699,-0.133115 -0.36007,-0.302653 -0.2331,-0.383368 0.0672,-0.04273 0.0524,-0.06348 -0.0458,-0.06435 -0.0798,-6.66e-4 -0.14506,-0.01801 -0.14506,-0.03877 0,-0.140009 0.19718,-0.931578 0.2488,-0.998825 0.0349,-0.04559 0.0878,-0.195855 0.11722,-0.333944 0.0423,-0.1984 0.13965,-0.291922 0.46382,-0.445825 0.22562,-0.107112 0.38999,-0.227577 0.36524,-0.267641 -0.0247,-0.04006 0.0227,-0.09462 0.10531,-0.121249 0.0827,-0.02663 0.22491,-0.08013 0.31612,-0.118939 0.0912,-0.03877 0.27931,-0.09266 0.41809,-0.119643 0.62166,-0.120975 0.88522,0.873209 0.42356,1.597695 -0.12485,0.195933 -0.28248,0.377572 -0.35027,0.403573 -0.0747,0.02859 -0.10453,0.106406 -0.0757,0.197108 0.0372,0.116902 -0.0488,0.198674 -0.39128,0.372324 -0.73156,0.370953 -0.98988,0.439253 -1.21681,0.321725 z m 1.15823,-0.759326 c 0.0624,-0.307509 0.22566,-0.538157 0.33375,-0.471352 0.0404,0.02506 0.0735,0.0059 0.0735,-0.04237 0,-0.04829 -0.0422,-0.0878 -0.0938,-0.0878 -0.0609,0 -0.0789,-0.111419 -0.0512,-0.317809 0.0438,-0.326542 -0.0455,-0.594019 -0.19836,-0.594019 -0.19699,0 -0.53182,0.367977 -0.62834,0.69056 -0.11361,0.379647 -0.13993,0.98863 -0.0468,1.081803 0.0325,0.03251 0.1711,0.04809 0.30794,0.03446 0.20646,-0.02036 0.258,-0.07034 0.30324,-0.293567 z m -3.98598,0.520298 c -0.0353,-0.09266 -0.036,-0.205803 -0.002,-0.251388 0.0341,-0.04559 0.0658,-0.221468 0.0707,-0.390849 0.008,-0.288436 0.18638,-0.975001 0.35008,-1.349953 0.0797,-0.182618 0.16527,-0.775833 0.20118,-1.395101 0.0129,-0.220214 0.0609,-0.438031 0.10691,-0.484076 0.0958,-0.09575 2.14991,-0.175568 2.20546,-0.08569 0.02,0.03251 -0.0349,0.147057 -0.12176,0.25456 -0.12591,0.155517 -0.21336,0.186573 -0.42754,0.151875 -0.29706,-0.04809 -0.90885,0.09462 -0.84544,0.197186 0.0219,0.03564 0.002,0.08827 -0.0442,0.116941 -0.0463,0.02859 -0.0842,0.126654 -0.0842,0.217865 0,0.09979 -0.0364,0.143298 -0.0915,0.109226 -0.0503,-0.03094 -0.0274,0.04132 0.051,0.160882 0.11196,0.170908 0.20925,0.217434 0.45437,0.217434 0.37033,0 0.53731,0.163584 0.46421,0.454848 -0.0475,0.189471 -0.0918,0.208309 -0.48817,0.208309 -0.59159,0 -0.82415,0.166678 -0.78975,0.565966 0.0212,0.244495 -0.009,0.317613 -0.16495,0.395148 -0.1543,0.07692 -0.16609,0.104605 -0.0617,0.144669 0.16029,0.06153 0.16797,0.335628 0.0137,0.489891 -0.0635,0.06348 -0.12927,0.187357 -0.14627,0.275317 -0.045,0.233334 -0.56109,0.230828 -0.64997,-0.0031 z m 5.32502,-0.04304 c -0.13946,-0.223308 -0.12787,-0.373028 0.0737,-0.954421 0.0948,-0.273554 0.1843,-0.698333 0.19883,-0.943961 0.0145,-0.245631 0.0795,-0.499753 0.14451,-0.564728 0.15191,-0.151914 0.63581,-0.166835 0.72512,-0.02232 0.0573,0.09278 0.12786,0.09243 0.4273,-0.0021 0.19726,-0.06227 0.41134,-0.153088 0.47574,-0.201886 0.0841,-0.06368 0.12611,-0.06196 0.14906,0.0063 0.0176,0.05217 0.098,0.07754 0.17882,0.05639 0.26008,-0.06803 0.33394,0.139186 0.21203,0.59483 -0.061,0.227968 -0.11252,0.535712 -0.11456,0.683886 -0.002,0.148193 -0.041,0.269403 -0.0866,0.269403 -0.0456,0 -0.0829,0.09325 -0.0829,0.207252 0,0.113964 -0.038,0.207251 -0.0845,0.207251 -0.0491,0 -0.0623,0.08827 -0.0317,0.21058 0.0684,0.272536 -0.16147,0.535478 -0.46815,0.535478 -0.35435,0 -0.46114,-0.52676 -0.17009,-0.839153 0.11796,-0.126614 0.15751,-0.292235 0.15751,-0.659695 0,-0.549377 -0.0664,-0.594755 -0.41781,-0.28546 -0.1523,0.134055 -0.20932,0.246414 -0.17306,0.340954 0.0325,0.08459 0.002,0.179211 -0.0765,0.236506 -0.0718,0.05252 -0.19288,0.285852 -0.26898,0.518528 -0.14294,0.437065 -0.38728,0.771209 -0.56391,0.771209 -0.0557,0 -0.14745,-0.0741 -0.20401,-0.164681 z m 3.13008,-0.0188 c -0.15959,-0.0983 -0.30324,-0.188022 -0.31926,-0.199379 -0.0525,-0.03721 0.16089,-1.228646 0.25813,-1.44073 0.0523,-0.114004 0.15975,-0.281857 0.23886,-0.373029 0.0791,-0.09117 0.13675,-0.2031 0.12814,-0.248686 -0.0192,-0.100688 0.5942,-0.412466 0.66738,-0.33927 0.0286,0.02859 0.008,0.09607 -0.0462,0.149995 -0.054,0.05397 -0.0981,0.16237 -0.0981,0.240931 0,0.07856 -0.0905,0.250488 -0.20122,0.381998 -0.12783,0.151913 -0.17658,0.279037 -0.13366,0.348512 0.0372,0.06016 0.0493,0.246023 0.027,0.413089 -0.0583,0.434868 0.14432,0.596815 0.45579,0.364257 0.13887,-0.103704 0.22992,-0.256871 0.2414,-0.406083 0.0102,-0.131784 0.0648,-0.326268 0.12152,-0.432224 0.08,-0.149407 0.081,-0.227929 0.005,-0.35004 -0.054,-0.08655 -0.0757,-0.21622 -0.0481,-0.288123 0.0274,-0.0719 -0.0153,-0.203218 -0.0957,-0.291844 -0.11698,-0.129238 -0.12579,-0.185281 -0.0446,-0.283071 0.1608,-0.19374 -0.17964,-1.121926 -0.41216,-1.123673 -0.0696,-4.97e-4 -0.21047,-0.05968 -0.31292,-0.131431 -0.12438,-0.0871 -0.26826,-0.112477 -0.43292,-0.07629 -0.19237,0.04226 -0.24665,0.02546 -0.24665,-0.07676 0,-0.07202 -0.0453,-0.130922 -0.10065,-0.130922 -0.0624,0 -0.0462,-0.05448 0.0429,-0.143533 0.10315,-0.103156 0.3171,-0.152306 0.76038,-0.174668 0.52379,-0.02663 0.66114,-0.0038 0.91042,0.150308 0.16147,0.09979 0.29357,0.235097 0.29357,0.300656 0,0.0656 0.0939,0.267993 0.2087,0.449816 0.13617,0.21575 0.21849,0.481546 0.23694,0.765134 0.0157,0.239013 0.0551,0.496914 0.0878,0.573137 0.0329,0.07621 0.0165,0.219039 -0.036,0.317339 -0.0526,0.0983 -0.0774,0.226284 -0.0551,0.284442 0.0223,0.05812 -0.0302,0.166091 -0.11624,0.239913 -0.0862,0.07382 -0.13527,0.190294 -0.10899,0.258751 0.0624,0.162605 -0.27661,0.709001 -0.43988,0.709001 -0.0782,0 -0.10829,0.04731 -0.0788,0.124187 0.0298,0.07782 -0.0364,0.177683 -0.17764,0.267484 -0.12392,0.07883 -0.24744,0.174237 -0.2745,0.212029 -0.11338,0.158376 -0.61735,0.135387 -0.90409,-0.04124 z m 4.39298,0.0392 c -0.35893,-0.09716 -0.49689,-0.223621 -0.49689,-0.455349 0,-0.132058 0.0425,-0.319611 0.0945,-0.416739 0.052,-0.09712 0.0986,-0.327835 0.10362,-0.51265 0.005,-0.201807 0.0467,-0.329009 0.10327,-0.318435 0.0666,0.01253 0.0738,-0.07265 0.0247,-0.290121 -0.09,-0.39769 -0.0219,-0.675709 0.22315,-0.912054 0.10832,-0.104448 0.19691,-0.240031 0.19691,-0.301321 0,-0.06129 0.0997,-0.176783 0.22155,-0.256597 0.26306,-0.172357 0.45347,-0.09066 0.49676,0.213204 0.0161,0.111654 0.12172,0.278841 0.2351,0.37154 0.20478,0.167384 0.20506,0.169459 0.0409,0.310055 -0.0909,0.07786 -0.1653,0.197852 -0.1653,0.266701 0,0.06991 -0.0732,0.125165 -0.16578,0.125165 -0.24751,0 -0.45423,0.256323 -0.46919,0.581792 -0.0192,0.41979 -0.0766,0.787481 -0.13829,0.887265 -0.0298,0.0479 0.0149,0.105114 0.0993,0.127162 0.0842,0.02193 0.17102,0.133743 0.19292,0.248295 0.0333,0.175176 -9.1e-4,0.220762 -0.21669,0.286987 -0.14107,0.04331 -0.31225,0.06364 -0.38039,0.04519 z m -2.02723,-0.133154 c -0.12477,-0.09125 -0.14251,-0.175921 -0.0969,-0.461761 0.0309,-0.192526 0.11095,-0.433912 0.17812,-0.536429 0.0672,-0.102529 0.1433,-0.426295 0.16918,-0.719498 0.0695,-0.786979 0.105,-0.906129 0.27011,-0.906129 0.0812,0 0.1908,-0.0432 0.2436,-0.09595 0.16812,-0.168127 0.37494,0.08232 0.31495,0.381371 -0.0278,0.139382 -0.0591,0.393261 -0.0693,0.564196 -0.0102,0.170947 -0.0426,0.310838 -0.0722,0.310838 -0.0614,7.4e-5 -0.15027,0.643309 -0.14937,1.080934 8.3e-4,0.257732 -0.0333,0.305551 -0.277,0.393754 -0.34237,0.123794 -0.326,0.124147 -0.51131,-0.01136 z m 3.89285,0.05052 c -0.53236,-0.09043 -0.5379,-0.09477 -0.52818,-0.416872 0.005,-0.170203 -0.001,-0.34675 -0.0137,-0.392336 -0.0129,-0.04559 -0.001,-0.138833 0.0251,-0.207251 0.0266,-0.06838 0.0711,-0.262628 0.0991,-0.43161 0.0317,-0.191899 0.133,-0.371775 0.26945,-0.479106 0.12015,-0.0945 0.25863,-0.248725 0.30778,-0.342677 0.0911,-0.174354 0.27351,-0.294468 0.80142,-0.527931 0.20972,-0.09274 0.45457,-0.120505 0.82896,-0.09399 0.29223,0.02076 0.54064,0.04077 0.55204,0.04461 0.0725,0.02467 -0.009,0.439223 -0.19418,0.987131 -0.11819,0.350001 -0.23051,0.876087 -0.24958,1.169125 -0.0192,0.293058 -0.0513,0.549439 -0.0717,0.569781 -0.0349,0.03486 -0.54875,0.04331 -0.91454,0.01488 -0.0912,-0.007 -0.29635,0.02036 -0.45593,0.0607 -0.15959,0.04042 -0.36472,0.06082 -0.45592,0.04535 z m 0.72238,-0.689161 c 0.21642,-0.09861 0.4796,-0.509337 0.4796,-0.748478 0,-0.08749 0.0372,-0.159081 0.0829,-0.159081 0.0456,0 0.0829,-0.186534 0.0829,-0.414479 v -0.414475 h -0.2922 c -0.22386,0 -0.31103,0.04363 -0.37283,0.186494 -0.0443,0.102569 -0.11495,0.242459 -0.15685,0.310838 -0.14459,0.235997 -0.33868,0.730052 -0.33868,0.862204 0,0.103117 0.2114,0.417973 0.30696,0.457214 0.009,0.0038 0.10296,-0.03251 0.20819,-0.08028 z m -3.99675,-2.830739 c 0,-0.345693 0.66704,-0.558561 0.72429,-0.231141 0.0364,0.207564 -0.10155,0.334179 -0.42013,0.385874 -0.28127,0.04563 -0.30414,0.03407 -0.30414,-0.154733 z"
       style="display:inline;fill:#000f35;fill-opacity:1;stroke-width:0.0828954"
       id="path2572"
       inkscape:label="fondita en" /></g></svg>
